<svg id="Laag_1" data-name="Laag 1" xmlns="http://www.w3.org/2000/svg" xmlns:xlink="http://www.w3.org/1999/xlink" viewBox="0 0 671 756"><defs><style>.cls-1{fill:#edebeb;}.cls-2{fill:url(#Naamloos_verloop_14);}.cls-3{fill:#93373b;}.cls-25,.cls-4,.cls-53{fill:#fff;}.cls-5{fill:#f9afaf;}.cls-6{fill:#ffe6e6;}.cls-7{fill:#ed3e3e;}.cls-8{fill:#ff7d7d;}.cls-9{fill:#efcaca;}.cls-10{fill:#848484;}.cls-11,.cls-21{fill:#933737;}.cls-12{fill:#2d76e0;}.cls-13{fill:#508fea;}.cls-14{fill:#b27f5e;}.cls-15{fill:#875e48;}.cls-16{fill:#99a3aa;}.cls-17{fill:#545466;}.cls-18{fill:#f95d65;}.cls-19{fill:#ffe600;}.cls-20,.cls-44,.cls-56{fill:none;}.cls-20{stroke:#ffcfcf;stroke-linecap:round;}.cls-20,.cls-24,.cls-25,.cls-43,.cls-44,.cls-45,.cls-56,.cls-57{stroke-miterlimit:10;}.cls-21{opacity:0.67;}.cls-22{fill:#666;}.cls-23,.cls-24{fill:#e5e5e5;}.cls-24,.cls-25{stroke:#fff;stroke-width:0.25px;}.cls-26{fill:#a87552;}.cls-27{fill:#ba8658;}.cls-28{fill:#d87f5b;}.cls-29{fill:#ffaa83;}.cls-30{fill:#385b25;}.cls-31{fill:#44772f;}.cls-32{opacity:0.49;}.cls-33{opacity:0.38;}.cls-34{opacity:0.39;}.cls-35{fill:#382a27;}.cls-36{fill:#9ba5aa;}.cls-37{fill:#474756;}.cls-38{fill:#aab6bc;}.cls-39{fill:#34343f;}.cls-40{fill:#b3e3fa;}.cls-41{fill:#ffee76;}.cls-42{fill:#c2c9ce;}.cls-43{fill:#616173;}.cls-43,.cls-44,.cls-45{stroke:#c2c9ce;}.cls-43,.cls-44{stroke-width:0.75px;}.cls-45{fill:#cfdee9;}.cls-46{fill:#ff0619;}.cls-47{fill:#cc3636;}.cls-48{fill:#ff9f75;}.cls-49{fill:#191919;}.cls-50{fill:#070707;}.cls-51{fill:#282828;}.cls-52{fill:#ff9166;}.cls-53{font-size:6.21px;font-family:ArcadeRounded, Arcade Rounded;}.cls-54{fill:#513e36;}.cls-55,.cls-57{fill:#44341b;}.cls-56,.cls-57{stroke:#44341b;}.cls-58{fill:#4e6793;}</style><linearGradient id="Naamloos_verloop_14" x1="624.22" y1="260.71" x2="671" y2="260.71" gradientUnits="userSpaceOnUse"><stop offset="0" stop-color="#ff5f6f"/><stop offset="0.49" stop-color="#fd5e6d"/><stop offset="0.66" stop-color="#f65866"/><stop offset="0.79" stop-color="#eb4f5b"/><stop offset="0.89" stop-color="#da424a"/><stop offset="0.97" stop-color="#c53234"/><stop offset="1" stop-color="#bc2b2b"/></linearGradient></defs><g id="monitor"><path class="cls-1" d="M658.13,372.6c5.89-2.94,11.63-9.66,11.69-14.8.65-59.27,1.34-119.4,1.15-178.94a30.92,30.92,0,0,0-15.57-26.73c-87.31-49.84-174.35-101-261.53-150.84A9.82,9.82,0,0,0,384.6,1L373.76,6.46Z"/><path class="cls-2" d="M671,178.86a30.92,30.92,0,0,0-15.57-26.73l-5.79-3.31q-4.71,5.9-9.35,11.84c-5.36,7-10.68,14.07-16,21.1a690,690,0,0,1,9.28,86.45c.8,17.63.62,35.27,1.1,52.9.2,7.24.4,14.48.41,21.72l23.12,29.77c5.89-2.94,11.63-9.66,11.69-14.8C670.47,298.53,671.16,238.4,671,178.86Z"/><path class="cls-3" d="M649.88,372.29,381.94,218c-6.13-3.53-11.15-12.65-11.17-20.27l-.5-183.22c0-7.65,5-11,11.12-7.5L649.88,161.24c6.16,3.54,11.2,12.69,11.2,20.35l0,183.28C661.06,372.49,656,375.83,649.88,372.29Z"/></g><path class="cls-4" d="M485.53,231.57h0c-4.42-2.57-8-10.4-8-17.42V135.41c0-7,3.62-10.67,8-8.13h0c4.43,2.54,8.05,10.37,8.05,17.39v78.8C493.58,230.49,490,234.13,485.53,231.57Z"/><path class="cls-4" d="M479.92,224.3h0c-3.24-7-3.24-15.42,0-18.68l34.75-35c3.25-3.28,8.57-.22,11.82,6.8h0c3.25,7,3.25,15.45,0,18.73l-34.79,35C488.47,234.39,483.16,231.32,479.92,224.3Z"/><path class="cls-4" d="M529,243.61c0,7.26-3.72,11-8.3,8.34s-8.3-10.69-8.3-17.95,3.71-11,8.3-8.34S529,236.35,529,243.61Z"/><path class="cls-4" d="M515,217.05c0,5.21-2.67,7.89-5.95,6s-5.95-7.66-5.95-12.86,2.66-7.88,5.95-6S515,211.85,515,217.05Z"/><g id="poot"><ellipse class="cls-5" cx="115.97" cy="495.09" rx="59.58" ry="34.9"/><ellipse class="cls-6" cx="115.97" cy="488.09" rx="59.58" ry="34.9"/></g><path id="zitvlak" class="cls-7" d="M41.3,379.79a319.66,319.66,0,0,1-8.82-85.58,24.7,24.7,0,0,1,19.31-23.27L140.4,251c3.66,9.91,7.22,20.9,10.37,32.9,2.65,10.08,4.68,19.65,6.26,28.6L41.3,379.79"/><g id="poot-2" data-name="poot"><polygon id="poot-3" data-name="poot" class="cls-8" points="232.26 521.67 232.26 627.36 255.87 643.1 255.87 513.8 232.26 521.67"/><polyline id="poot-4" data-name="poot" class="cls-9" points="255.87 643.1 278.35 627.36 278.35 513.8 255.87 513.8 255.87 643.1"/></g><g id="tafelblad"><path class="cls-5" d="M633.43,446.59,351.49,609.4a60.89,60.89,0,0,1-61,0L8.65,446.11C-2.23,439.81.48,420.9.7,410.18L291.93,253.07a60.93,60.93,0,0,1,61.55.18L641.56,412.18C641.87,420.46,644.28,440.32,633.43,446.59Z"/><path class="cls-6" d="M632.86,428.1,350.92,590.91a60.92,60.92,0,0,1-61,0L8.08,427.61a16.36,16.36,0,0,1,0-28.31L291.36,234.57a60.93,60.93,0,0,1,61.55.18L633,399.82A16.37,16.37,0,0,1,632.86,428.1Z"/></g><path class="cls-4" d="M314.84,480.93l78.55,46.54,54.54-32.31L370.27,449.8Z"/><path class="cls-10" d="M337.2,507.4l35.24,19.87a1.81,1.81,0,0,0,.9.24,2.48,2.48,0,0,0,1.75-.72l0,0a1.83,1.83,0,0,0-.49-2.81l-35.29-20.5a2,2,0,0,0-.72-.23,26.55,26.55,0,0,1-4.66-1c-3.83-1.19-1.73-.17-1.8-.05s-2.33-1.36.36.83a36.76,36.76,0,0,1,4.21,4A1.74,1.74,0,0,0,337.2,507.4Z"/><path class="cls-4" d="M136.16,336.68l78.55,46.54,54.55-32.31-77.67-45.36Z"/><path class="cls-11" d="M167.13,345.76l-40.43,1.63a1.89,1.89,0,0,0-.89.27,2.49,2.49,0,0,0-1.11,1.53v0a1.83,1.83,0,0,0,1.89,2.14l40.79-1.13a1.87,1.87,0,0,0,.74-.18,26.36,26.36,0,0,1,4.49-1.6c3.88-1,1.56-.76,1.56-.9s2.69-.08-.74-.52a35.78,35.78,0,0,1-5.7-1.21A1.73,1.73,0,0,0,167.13,345.76Z"/><g id="koffie"><path class="cls-12" d="M299.45,473.56h0a2.83,2.83,0,0,0-1.47,0,6.15,6.15,0,0,0-1.38.45,5.54,5.54,0,0,0-1.2.79,5.65,5.65,0,0,0-1,1.17l1.32,10.95a17.54,17.54,0,0,0,4.51-8.8,16.65,16.65,0,0,0,.25-3.11A1.55,1.55,0,0,0,299.45,473.56Zm-2.57,3.27c-.06.21-.13.43-.18.65-.14.56-.26,1.12-.45,1.67-.12.36-.69.2-.57-.16s.18-.6.26-.91h-.14c-.14,0-.27-.22-.2-.36a.5.5,0,0,1,0-.13.27.27,0,0,1-.23-.36l0-.07h0l.08-.18a1,1,0,0,1-.35,0,.3.3,0,0,1-.21-.5,2.56,2.56,0,0,1,.6-.54,4.13,4.13,0,0,1,.52-.33.68.68,0,0,1,.62-.05.64.64,0,0,1,.29.57A2.2,2.2,0,0,1,296.88,476.83Z"/><path class="cls-13" d="M298.9,474.6h0a2.29,2.29,0,0,0-1.27,0,4.74,4.74,0,0,0-1.18.38,4.82,4.82,0,0,0-1.93,1.69l1.14,9.43a15.15,15.15,0,0,0,3.88-7.58,13.67,13.67,0,0,0,.22-2.68A1.33,1.33,0,0,0,298.9,474.6Zm-2,2.23c-.06.21-.13.43-.18.65-.14.56-.26,1.12-.45,1.67-.12.36-.69.2-.57-.16s.18-.6.26-.91h-.14c-.14,0-.27-.22-.2-.36a.5.5,0,0,1,0-.13.27.27,0,0,1-.23-.36l0-.07h0l.08-.18a1,1,0,0,1-.35,0,.3.3,0,0,1-.21-.5,2.56,2.56,0,0,1,.6-.54,4.13,4.13,0,0,1,.52-.33.68.68,0,0,1,.62-.05.64.64,0,0,1,.29.57A2.2,2.2,0,0,1,296.88,476.83Z"/><path class="cls-12" d="M267.16,480.6a52.1,52.1,0,0,0,6.73,22.84,5,5,0,0,0,2.46,2.18,13.33,13.33,0,0,0,10.46-.14,4.88,4.88,0,0,0,2.13-1.84,45.32,45.32,0,0,0,4.7-9.33,46.09,46.09,0,0,0,2.77-13.71,16.11,16.11,0,0,1-4.09,4.35,18,18,0,0,1-11.33,3.1c-2.59-.05-6.94-.13-10.6-3.26A13.18,13.18,0,0,1,267.16,480.6Z"/><ellipse class="cls-13" cx="281.78" cy="479.68" rx="14.62" ry="8.83"/><path class="cls-12" d="M295.29,480.25c0,4.24-6.05,6.68-13.51,6.68s-13.58-2.37-13.58-6.61,6.13-8.74,13.58-8.74S295.29,476,295.29,480.25Z"/><ellipse class="cls-14" cx="281.78" cy="480.87" rx="13.5" ry="6.06"/><path class="cls-13" d="M290.94,472.94a12.31,12.31,0,0,1,2.22-1.49,12,12,0,0,1,1.42-.63,3,3,0,0,1,2.6.29,6,6,0,0,1,.74.56,10.15,10.15,0,0,1,1.9,2.09,6.2,6.2,0,0,0-3.24.26,5.24,5.24,0,0,0-2,1.72Z"/></g><g id="koffie-2" data-name="koffie"><path class="cls-12" d="M264.92,317.36a13.36,13.36,0,0,0,.21,2.58,14.51,14.51,0,0,0,3.74,7.31l1.1-9.1a4.87,4.87,0,0,0-.85-1,4.65,4.65,0,0,0-1-.65,4.33,4.33,0,0,0-1.14-.37,2.21,2.21,0,0,0-1.22,0h0A1.31,1.31,0,0,0,264.92,317.36Zm2.85.95a.54.54,0,0,1,.24-.48.54.54,0,0,1,.51,0,3.12,3.12,0,0,1,.43.27,2.46,2.46,0,0,1,.51.45.25.25,0,0,1-.18.42.7.7,0,0,1-.29,0l.06.15h0a.14.14,0,0,0,0,.06c.06.15-.06.26-.19.29l.05.11a.25.25,0,0,1-.18.3.2.2,0,0,1-.11,0c.06.25.13.51.21.75s-.37.43-.47.13a12.73,12.73,0,0,1-.37-1.38l-.15-.54A1.78,1.78,0,0,1,267.77,318.31Z"/><path class="cls-13" d="M265.49,318.05a11.26,11.26,0,0,0,.18,2.23,12.39,12.39,0,0,0,3.22,6.28c.31-2.61.63-5.22.94-7.83a4.18,4.18,0,0,0-.73-.83,4.35,4.35,0,0,0-.86-.57,4,4,0,0,0-1-.31,1.88,1.88,0,0,0-1.05,0h0A1.09,1.09,0,0,0,265.49,318.05Zm2.28.26a.54.54,0,0,1,.24-.48.54.54,0,0,1,.51,0,3.12,3.12,0,0,1,.43.27,2.46,2.46,0,0,1,.51.45.25.25,0,0,1-.18.42.7.7,0,0,1-.29,0l.06.15h0a.14.14,0,0,0,0,.06c.06.15-.06.26-.19.29l.05.11a.25.25,0,0,1-.18.3.2.2,0,0,1-.11,0c.06.25.13.51.21.75s-.37.43-.47.13a12.73,12.73,0,0,1-.37-1.38l-.15-.54A1.78,1.78,0,0,1,267.77,318.31Z"/><path class="cls-12" d="M292.55,322A43.49,43.49,0,0,1,287,341a4.09,4.09,0,0,1-2,1.8,11,11,0,0,1-8.68-.11,4.14,4.14,0,0,1-1.77-1.52,38.23,38.23,0,0,1-6.2-19.13,13.52,13.52,0,0,0,3.39,3.61,15,15,0,0,0,9.41,2.57c2.15,0,5.77-.11,8.81-2.71A11.23,11.23,0,0,0,292.55,322Z"/><ellipse class="cls-13" cx="280.4" cy="321.23" rx="12.14" ry="7.33"/><path class="cls-12" d="M269.19,321.7c0,3.52,5,5.55,11.21,5.55s11.28-2,11.28-5.49-5.08-7.26-11.28-7.26S269.19,318.18,269.19,321.7Z"/><ellipse class="cls-15" cx="280.4" cy="322.21" rx="11.21" ry="5.03"/><path class="cls-13" d="M272.8,315.63a10.22,10.22,0,0,0-1.84-1.24,12.61,12.61,0,0,0-1.18-.52,2.46,2.46,0,0,0-2.16.24,5.81,5.81,0,0,0-.62.46,8.72,8.72,0,0,0-1.57,1.74,5.18,5.18,0,0,1,2.68.22,4.3,4.3,0,0,1,1.7,1.43Z"/></g><path class="cls-16" d="M118.44,383.92l35.45-18.68a4.28,4.28,0,0,1,4.32,0l16.94,8.39c0,.66.17,2.75-.5,3.15l-35.2,20.75a3.38,3.38,0,0,1-3.47,0L118.87,387C118.29,386.65,118.44,384.46,118.44,383.92Z"/><path d="M118.88,383.22l35-20.24a4.28,4.28,0,0,1,4.32,0l16.44,9.77a1,1,0,0,1,0,1.76l-35.2,20.75a3.4,3.4,0,0,1-3.47,0l-17.11-10.51A.89.89,0,0,1,118.88,383.22Z"/><path class="cls-17" d="M119.74,383.16l34.18-19.77a4.19,4.19,0,0,1,4.22,0l15.68,9.2a1,1,0,0,1,0,1.72l-34.37,20.26a3.28,3.28,0,0,1-3.38,0l-16.35-9.92A.87.87,0,0,1,119.74,383.16Z"/><path d="M167.44,379.45a3.31,3.31,0,0,1,.75-.58,3.93,3.93,0,0,1,.79-.35.66.66,0,0,1,.26.27.69.69,0,0,1,.09.41,4.23,4.23,0,0,1-.7.49,4.14,4.14,0,0,1-1,.4.6.6,0,0,1-.22-.31A.5.5,0,0,1,167.44,379.45Z"/><path d="M169.78,378.08a3.92,3.92,0,0,1,.75-.57,3.52,3.52,0,0,1,.79-.36.67.67,0,0,1,.27.27.69.69,0,0,1,.08.42,4.43,4.43,0,0,1-.7.48,4.09,4.09,0,0,1-1,.4.51.51,0,0,1-.22-.31A.52.52,0,0,1,169.78,378.08Z"/><path class="cls-4" d="M147.45,369.94l5-2.73a2.1,2.1,0,0,1,2.11,0l11.35,6.88a.5.5,0,0,1,0,.86l-5.08,3a1.65,1.65,0,0,1-1.69,0l-11.68-7.25A.43.43,0,0,1,147.45,369.94Z"/><path class="cls-4" d="M140.39,374.35l3.46-1.83a2.08,2.08,0,0,1,2.1,0l11.36,6.89a.5.5,0,0,1,0,.85l-3.55,2.08a1.68,1.68,0,0,1-1.69,0l-11.69-7.25A.43.43,0,0,1,140.39,374.35Z"/><g id="reviews"><path class="cls-18" d="M298.72,155.81l-49.88-28.28a4.56,4.56,0,0,0-6.81,4l.54,70.67a15.64,15.64,0,0,0,7.93,13.47l18.92,10.71,30.73,17.39a4.37,4.37,0,0,0,6.52-3.8V169.45A15.68,15.68,0,0,0,298.72,155.81Z"/><polygon class="cls-18" points="279.8 232.26 269.42 226.38 274.35 238.13 279.8 232.26"/><path class="cls-19" d="M262.29,152.9l-.5,3.08a.42.42,0,0,0,.21.42l2.78,1.43a.39.39,0,0,1-.12.74l-3.09.48a.39.39,0,0,0-.33.33l-.5,3.08a.39.39,0,0,1-.74.11l-1.41-2.78a.4.4,0,0,0-.41-.22l-3.09.48a.39.39,0,0,1-.34-.67l2.22-2.2a.39.39,0,0,0,.07-.46l-1.4-2.79a.39.39,0,0,1,.53-.53l2.78,1.43a.39.39,0,0,0,.46-.07l2.21-2.2A.39.39,0,0,1,262.29,152.9Z"/><path class="cls-19" d="M271.93,157.86l-.5,3.08a.38.38,0,0,0,.21.41l2.77,1.43a.39.39,0,0,1-.12.74l-3.08.48a.39.39,0,0,0-.33.33l-.5,3.08a.4.4,0,0,1-.75.12l-1.41-2.79a.38.38,0,0,0-.41-.21l-3.09.47a.39.39,0,0,1-.33-.67l2.21-2.2a.41.41,0,0,0,.08-.46l-1.41-2.79a.39.39,0,0,1,.53-.53l2.78,1.43a.39.39,0,0,0,.46-.07l2.22-2.2A.4.4,0,0,1,271.93,157.86Z"/><path class="cls-19" d="M281.56,162.81l-.5,3.08a.4.4,0,0,0,.21.42l2.78,1.43a.39.39,0,0,1-.12.74l-3.09.48a.39.39,0,0,0-.33.33l-.5,3.08a.39.39,0,0,1-.74.11l-1.41-2.78a.4.4,0,0,0-.41-.22l-3.09.48a.39.39,0,0,1-.34-.67l2.22-2.2a.39.39,0,0,0,.07-.46l-1.4-2.79a.39.39,0,0,1,.53-.53l2.78,1.43a.4.4,0,0,0,.46-.07l2.21-2.2A.39.39,0,0,1,281.56,162.81Z"/><path class="cls-19" d="M291.52,167.93,291,171a.4.4,0,0,0,.21.42l2.77,1.43a.39.39,0,0,1-.12.74l-3.08.48a.39.39,0,0,0-.33.33l-.5,3.08a.4.4,0,0,1-.75.11l-1.4-2.78a.41.41,0,0,0-.42-.22l-3.08.48a.39.39,0,0,1-.34-.67l2.21-2.2a.38.38,0,0,0,.08-.46L284.86,169a.4.4,0,0,1,.54-.53l2.77,1.43a.39.39,0,0,0,.46-.07l2.22-2.2A.39.39,0,0,1,291.52,167.93Z"/><line class="cls-20" x1="254.8" y1="164.71" x2="271.83" y2="173.6"/><line class="cls-20" x1="254.8" y1="167.71" x2="279.8" y2="180.76"/><line class="cls-20" x1="254.8" y1="170.71" x2="279.8" y2="183.76"/><path class="cls-19" d="M262.29,182.92l-.5,3.08a.4.4,0,0,0,.21.41l2.78,1.43a.39.39,0,0,1-.12.74l-3.09.48a.4.4,0,0,0-.33.33l-.5,3.08a.39.39,0,0,1-.74.11l-1.41-2.78a.39.39,0,0,0-.41-.21l-3.09.47a.39.39,0,0,1-.34-.67l2.22-2.2a.39.39,0,0,0,.07-.46l-1.4-2.79a.39.39,0,0,1,.53-.53l2.78,1.43a.39.39,0,0,0,.46-.07l2.21-2.2A.4.4,0,0,1,262.29,182.92Z"/><path class="cls-19" d="M271.93,187.87l-.5,3.08a.39.39,0,0,0,.21.42l2.77,1.42a.4.4,0,0,1-.12.75l-3.08.47a.39.39,0,0,0-.33.33l-.5,3.08a.4.4,0,0,1-.75.12l-1.41-2.79a.38.38,0,0,0-.41-.21l-3.09.48a.4.4,0,0,1-.33-.68l2.21-2.2a.41.41,0,0,0,.08-.46l-1.41-2.78a.39.39,0,0,1,.53-.53l2.78,1.42a.39.39,0,0,0,.46-.07l2.22-2.2A.4.4,0,0,1,271.93,187.87Z"/><path class="cls-19" d="M281.56,192.83l-.5,3.08a.39.39,0,0,0,.21.41l2.78,1.43a.39.39,0,0,1-.12.74l-3.09.48a.4.4,0,0,0-.33.33l-.5,3.08a.39.39,0,0,1-.74.11l-1.41-2.78a.39.39,0,0,0-.41-.21l-3.09.47a.39.39,0,0,1-.34-.67l2.22-2.2a.39.39,0,0,0,.07-.46l-1.4-2.79a.39.39,0,0,1,.53-.53l2.78,1.43a.4.4,0,0,0,.46-.07l2.21-2.2A.4.4,0,0,1,281.56,192.83Z"/><path class="cls-19" d="M291.52,198,291,201a.39.39,0,0,0,.21.41l2.77,1.43a.39.39,0,0,1-.12.74l-3.08.48a.4.4,0,0,0-.33.33l-.5,3.08a.4.4,0,0,1-.75.12l-1.4-2.79a.4.4,0,0,0-.42-.21l-3.08.47a.39.39,0,0,1-.34-.67l2.21-2.2a.38.38,0,0,0,.08-.46L284.86,199a.4.4,0,0,1,.54-.53l2.77,1.43a.39.39,0,0,0,.46-.07l2.22-2.2A.4.4,0,0,1,291.52,198Z"/><line class="cls-20" x1="254.8" y1="194.72" x2="263.73" y2="199.38"/><line class="cls-20" x1="254.8" y1="197.72" x2="287.43" y2="214.75"/><line class="cls-20" x1="254.8" y1="200.72" x2="279.8" y2="213.77"/><line class="cls-20" x1="266.65" y1="200.84" x2="275.58" y2="205.5"/></g><g id="schets"><rect class="cls-21" x="211.07" y="325.97" width="7.35" height="30.06" rx="3.51" transform="translate(617.46 355.93) rotate(124.32)"/><path class="cls-22" d="M172,316.28l71.49,48.82.05,0L172,316.25Z"/><rect class="cls-21" x="203.72" y="330.8" width="7.62" height="30.06" rx="3.64" transform="translate(475.53 647.23) rotate(169.32)"/><path class="cls-22" d="M205.34,313.69l12.54,66.52.05,0L205.4,313.71Z"/><path class="cls-22" d="M209.87,378.94h.06l-13.27-70.35-.06,0Z"/><circle class="cls-21" cx="203.79" cy="346.53" r="2.71"/><rect class="cls-22" x="203.76" y="343.82" width="0.05" height="5.43" transform="translate(230.88 -54.57) rotate(34.32)"/><rect class="cls-22" x="196.38" y="344.14" width="0.05" height="7.57" transform="translate(230.38 -50.16) rotate(34.32)"/><rect class="cls-22" x="203.76" y="343.82" width="0.05" height="5.43" transform="translate(604.89 373.63) rotate(124.32)"/><rect class="cls-22" x="196.38" y="344.14" width="0.05" height="7.57" transform="translate(594.5 381.9) rotate(124.32)"/><circle class="cls-21" cx="196.41" cy="347.93" r="3.78"/><rect class="cls-22" x="199.55" y="340.33" width="0.05" height="14.01" transform="translate(503.92 86.86) rotate(79.32)"/><path class="cls-22" d="M179.49,312.44l-.05,0,71,48.49.05,0Z"/><path class="cls-22" d="M162.64,329.52l65.43,44.67.06,0-65.51-44.72A.19.19,0,0,1,162.64,329.52Z"/><path class="cls-22" d="M181.41,363.18l31.1-45.55,0,0-31.09,45.53Z"/><path class="cls-22" d="M238.26,333.13l-30.48,44.64,0,0,30.48-44.64Z"/></g><path class="cls-23" d="M430.29,699.7c-7.05-7-15.28-7.78-18.76-4.23-2.82,2.88-2,8.1-1.93,8.57a13,13,0,0,0,10,10.26,64.3,64.3,0,0,1,7.74,4.1,67.24,67.24,0,0,1,9.1,6.76c5.45,4.21,12.16,5.13,17.28,2.21a14.53,14.53,0,0,0,5.38-5.58,3.29,3.29,0,0,0,.41-1.76,80.51,80.51,0,0,0-.76-8c-.39-2.69-.9-5.16-1.44-7.4Z"/><path class="cls-4" d="M430.87,697.64c-6.88-6.4-14.92-7.16-18.32-3.89-2.75,2.65-2,7.46-1.89,7.89.81,4.53,4.63,8.27,9.79,9.45a66.37,66.37,0,0,1,7.55,3.78,65.52,65.52,0,0,1,8.9,6.23c5.32,3.88,11.87,4.72,16.88,2a14,14,0,0,0,5.68-5.92,66.7,66.7,0,0,0-.78-8.23c-.38-2.48-.87-4.76-1.4-6.82Z"/><path d="M431,703.9c-.39.66-1.27,2.35-.6,3.72s2.61,1.7,4,1.89c4.91.7,9.56,1.18,13.21,1.5a48.74,48.74,0,0,1-14.82,1.59c-4-.22-5.9-.87-6.55-2.27s.24-3.13.42-3.47A6.07,6.07,0,0,1,431,703.9Z"/><path class="cls-24" d="M479.39,672.58c-7-7-15.27-7.78-18.75-4.23-2.82,2.87-2,8.1-1.94,8.57a13,13,0,0,0,10,10.25A66.72,66.72,0,0,1,485.56,698c5.45,4.21,12.16,5.12,17.28,2.21a14.48,14.48,0,0,0,5.37-5.58,3.41,3.41,0,0,0,.42-1.77,77.9,77.9,0,0,0-.77-8c-.39-2.69-.89-5.16-1.44-7.4Z"/><path class="cls-25" d="M480,670.52c-6.88-6.4-14.92-7.16-18.32-3.89-2.76,2.65-2,7.46-1.89,7.89.8,4.53,4.62,8.27,9.78,9.45A65.78,65.78,0,0,1,486,694c5.32,3.89,11.88,4.73,16.88,2a14,14,0,0,0,5.69-5.93,70.67,70.67,0,0,0-.78-8.22,66.82,66.82,0,0,0-1.41-6.82Z"/><path d="M480.05,676.77c-.38.66-1.26,2.36-.6,3.72s2.62,1.7,4,1.9c4.92.69,9.57,1.17,13.22,1.5a48.72,48.72,0,0,1-14.83,1.58c-4-.21-5.9-.86-6.54-2.26s.24-3.13.42-3.48A6.09,6.09,0,0,1,480.05,676.77Z"/><path class="cls-26" d="M491.52,556.79c-.59-.22-10.46-3.85-18.83,2.49-7,5.28-7.5,13.36-7.56,14.53l29.2,3.11,3-17.78Z"/><path class="cls-27" d="M492.55,566.69a17.35,17.35,0,0,1-1.48,3c-.31.49-.63.94-.94,1.34a3.4,3.4,0,0,1-2.75,1.3,144,144,0,0,0-20,1.21c-9.91,1.3-20.36,2.67-32,8.6a73.68,73.68,0,0,0-12.56,8.11,12.74,12.74,0,0,0-4.74,9.22c-.07,1.32-.14,2.76-.19,4.31-.67,21.24,2.9,35.74,6.52,54.54,2,10.27,4.64,25.22,7.12,43.87a17.58,17.58,0,0,0,25.79,0q-1-19.5-1.49-40-.3-14.16-.29-27.86c2.3.14,43.23,2.1,61.06-26.68A51.87,51.87,0,0,0,524,584.48a39.62,39.62,0,0,1-31.42-17.79Z"/><path class="cls-28" d="M514.59,437.25s5.79-5.62,2.56-16.95l23.68-10s3.15,9.23,7.75,11.67-12.31,10.12-12.31,10.12l-20.6,6.56Z"/><ellipse class="cls-29" cx="516.15" cy="390.06" rx="25.24" ry="30.57"/><path class="cls-30" d="M577.64,427.75c-8-5.57-20.66-4.1-28.46,4.76A235.76,235.76,0,0,0,532,457.29l1,.76c5.92,4.83,11.75,9.75,17.72,14.52,3.56,2.83,8.29,5.07,12.57,7.74l16.3-19.5C589.33,450.31,587.15,434.36,577.64,427.75Z"/><path class="cls-31" d="M507.37,442.49a46.15,46.15,0,0,0-13.79,18.12c-3.78,9.07-3.43,16.86-3.1,24.27a85.2,85.2,0,0,0,6.81,29.64,100.18,100.18,0,0,1,0,15.42,101.71,101.71,0,0,1-5.77,26.85c-.09,1.09-.54,7.43,1,9.9.05.08.46.73,1.07,1.56,0,0,1,1.35,2.12,2.67a45.14,45.14,0,0,0,5.72,5.44A39.52,39.52,0,0,0,514.8,583a40.42,40.42,0,0,0,9.17,1.49q33.3-45.79,66.59-91.6c1-3.72,7.35-30.63-9.82-52.46a56.64,56.64,0,0,0-23.86-17.49c-.94-1.66-2.4-3.67-4.3-3.75s-3.37,1.81-4,2.56c-1.33,1.57-5.88,3.67-15,7.86-11.35,5.22-17,7.84-20.31,7.41a5.26,5.26,0,0,0-3.7.59C508,438.67,507.52,440.8,507.37,442.49Z"/><path class="cls-4" d="M474.71,423.23c-25.11-17.2-52.31-32.11-77.42-49.31l-56.55,28.66,74.52,50.35Z"/><g id="schets-2" data-name="schets"><rect class="cls-32" x="391.81" y="400.59" width="8.57" height="35.03" rx="3.68" transform="translate(-178.57 456.34) rotate(-50.36)"/><rect class="cls-32" x="400.57" y="395.77" width="8.88" height="35.03" rx="3.81" transform="translate(-36.8 39.6) rotate(-5.36)"/><circle class="cls-33" cx="409.42" cy="412.88" r="3.16"/><rect class="cls-22" x="409.38" y="409.71" width="0.06" height="6.32" transform="translate(461.24 992.01) rotate(-140.36)"/><rect class="cls-22" x="418.1" y="407.65" width="0.06" height="8.82" transform="translate(477.19 996.13) rotate(-140.36)"/><rect class="cls-22" x="409.38" y="409.71" width="0.06" height="6.32" transform="translate(-169.72 464.7) rotate(-50.36)"/><rect class="cls-22" x="418.1" y="407.65" width="0.06" height="8.82" transform="translate(-165.94 471.12) rotate(-50.36)"/><circle class="cls-34" cx="418.13" cy="412.06" r="4.41"/><rect class="cls-22" x="414.36" y="404.25" width="0.06" height="16.32" transform="translate(42.46 863.48) rotate(-95.36)"/></g><path class="cls-29" d="M397.72,458.53A14.15,14.15,0,0,1,411,448.32a235.15,235.15,0,0,1,23.58,28.28c4.57,6.53,10.56,12,15.46,18.25,3.3,4.23,5.62,7.45,9.12,7.56,3.13.1,5.25-2.32,10.87-7.9q5.83-5.82,11.9-11.4a182.07,182.07,0,0,1,20.79-16.34c7.92-4.77,17.71-2.9,22.39,3.16,5.55,7.19,3.41,19.62-6.37,25.16l-43.57,27.83a31.7,31.7,0,0,1-17.43,6c-13,.3-22-8.37-26.16-12.32-6.19-5.91-9.08-11.66-12.37-18C414.42,489.33,407.32,475.82,397.72,458.53Z"/><path class="cls-30" d="M535.7,461.46c-6-7.72-18.47-10.12-28.58-4a237.72,237.72,0,0,0-23.86,18.45l.7,1c4.19,6.38,8.27,12.84,12.53,19.17,2.54,3.78,6.38,7.34,9.65,11.17l21.42-13.69C540.05,486.5,542.78,470.63,535.7,461.46Z"/><path class="cls-35" d="M497.64,345.14a28.79,28.79,0,0,0-8.6,12.32,28,28,0,0,0-1.2,14.16A19.21,19.21,0,0,0,485,384c1.2,9.82,10.07,14.64,11,15.11a27.15,27.15,0,0,0,5.35,9.73c8.42,9.79,21.22,10.32,23.8,10.38A26.81,26.81,0,0,0,537.79,413a25.49,25.49,0,0,0,6.45-8.83l6.21-29.06a40.55,40.55,0,0,0-3.89-26.45,39.28,39.28,0,0,0-8.06-10.29,19,19,0,0,0-8.36-8.13c-5-2.39-9.66-1.63-15.29-.7-6.38,1.05-11.89,2-15.06,6.51A13.84,13.84,0,0,0,497.64,345.14Z"/><path class="cls-29" d="M397.72,458.53c-1.73-.37-3.92-3.31-6.7-4.74-2.6-1.33-4.29-2.2-5.68-4.08s-1.34-3.35-2.66-8.06c-.6-2.16-1.21-4-1.7-5.35a5.78,5.78,0,0,0-1.24-2q-5.06-5.32-10.1-10.64a2.31,2.31,0,0,1-.2-2.82,2.11,2.11,0,0,1,2.81-.59,82.2,82.2,0,0,0,16,12.59,80.26,80.26,0,0,0,9.53,4.89,1.79,1.79,0,0,0,2.41-1.08,7,7,0,0,0,.38-1.89c.25-4.2-3.56-6.47-3-10.16v0a2.15,2.15,0,0,1,3.86-1l.09.11a28.42,28.42,0,0,1,3.8,7.11c1.17,3.11,1.16,4.39,2.62,11.37.57,2.76,2.67,4.73,3,6.14C407.18,450.89,401.52,456,397.72,458.53Z"/><path class="cls-26" d="M477,649,481.21,675a19.2,19.2,0,0,0,25.27,0v-9.4l-24-18.47L477,649"/><path class="cls-36" d="M475.58,353.11q-12.75,7.72-26.55,15.41-8.46,4.71-16.74,9a8,8,0,0,1-8,0l-62.91-36.64c-1.07-.62-.8-2.45-.79-3.31l45-24.85a6,6,0,0,1,6,0l63.75,37c.31.18.73-1,.74-.72C476.06,349.88,476.3,352.69,475.58,353.11Z"/><path class="cls-37" d="M464.38,357.77a7.25,7.25,0,0,1,1.33-1,7.36,7.36,0,0,1,1.41-.63,1.27,1.27,0,0,1,.47.47,1.31,1.31,0,0,1,.15.75,8.22,8.22,0,0,1-1.24.86,8.07,8.07,0,0,1-1.76.7.88.88,0,0,1-.39-.55A.89.89,0,0,1,464.38,357.77Z"/><path class="cls-37" d="M468.54,355.34a6.62,6.62,0,0,1,1.33-1,7,7,0,0,1,1.41-.62,1.13,1.13,0,0,1,.47.47,1.16,1.16,0,0,1,.14.74,7.56,7.56,0,0,1-1.24.86,7,7,0,0,1-1.76.7,1,1,0,0,1-.39-.54A1,1,0,0,1,468.54,355.34Z"/><path class="cls-38" d="M408.35,254.8l.8,51a4.4,4.4,0,0,0,2.19,3.83l64.48,38.55c1,.56,2.63-1.26,2.63-2.38l0-51a5.89,5.89,0,0,0-3-5.11l-64.22-36.76C410.46,252.36,408.37,253.82,408.35,254.8Z"/><path class="cls-39" d="M408.23,255,408,306.8a4.43,4.43,0,0,0,2.2,3.83l64.93,37.43a1.45,1.45,0,0,0,2.18-1.26l0-51.05a5.89,5.89,0,0,0-3-5.11l-64.22-36.76A1.28,1.28,0,0,0,408.23,255Z"/><path class="cls-40" d="M411.05,257.65v50.21a.3.3,0,0,0,.15.26L474,344.35a.31.31,0,0,0,.46-.27v-50a.31.31,0,0,0-.16-.26l-62.82-36.47A.3.3,0,0,0,411.05,257.65Z"/><g id="bureaublad"><path class="cls-41" d="M412.7,261.31v2.62h0l3.26,1.88s0,0,0,0v-2.6h0l-3.27-1.9S412.7,261.3,412.7,261.31Z"/><path class="cls-41" d="M412.7,265.84v2.61s0,0,0,0l3.26,1.88s0,0,0,0v-2.6h0l-3.27-1.9S412.7,265.83,412.7,265.84Z"/><path class="cls-41" d="M412.7,270.37V273s0,0,0,0l3.26,1.88s0,0,0,0v-2.6h0l-3.27-1.9S412.7,270.36,412.7,270.37Z"/><path class="cls-41" d="M418.3,268.11v2.61h0l3.27,1.89s0,0,0,0V270h0l-3.27-1.9S418.3,268.09,418.3,268.11Z"/><path class="cls-41" d="M418.3,272.64v2.61h0l3.27,1.89s0,0,0,0v-2.6h0l-3.27-1.9S418.3,272.62,418.3,272.64Z"/><path class="cls-41" d="M418.3,277.17v2.61h0l3.27,1.89s0,0,0,0v-2.6h0l-3.27-1.9S418.3,277.15,418.3,277.17Z"/><path class="cls-41" d="M467.75,323.53v2.61h0L471,328s0,0,0,0v-2.6h0l-3.27-1.9S467.75,323.51,467.75,323.53Z"/><path class="cls-41" d="M467.75,328.05v2.62h0l3.27,1.89,0,0V330h0l-3.27-1.9S467.75,328,467.75,328.05Z"/><path class="cls-41" d="M467.75,332.58v2.62h0L471,337.1l0,0v-2.6h0l-3.27-1.9S467.75,332.57,467.75,332.58Z"/></g><path class="cls-42" d="M420.21,272.13V305.8a.21.21,0,0,0,.1.18l42.14,24.3a.21.21,0,0,0,.31-.18V296.59a.19.19,0,0,0-.1-.17L420.52,272A.21.21,0,0,0,420.21,272.13Z"/><path class="cls-4" d="M425.63,280v25.1a.13.13,0,0,0,.08.13l31.4,18.11a.15.15,0,0,0,.23-.13v-25a.13.13,0,0,0-.08-.13l-31.4-18.24A.15.15,0,0,0,425.63,280Z"/><path class="cls-42" d="M475.3,350.68l-43,25.12a8,8,0,0,1-8,0l-62.91-36.64a1.61,1.61,0,0,1,0-2.78L405.57,311a6,6,0,0,1,6,0l63.75,37A1.53,1.53,0,0,1,475.3,350.68Z"/><g id="toetsenbord"><path class="cls-43" d="M407.38,314.9l60.05,35a.63.63,0,0,1,0,1.09L444.8,364.59a2.26,2.26,0,0,1-2.21,0l-60.44-35.33a.69.69,0,0,1,0-1.19l22.41-13.18A2.79,2.79,0,0,1,407.38,314.9Z"/><line class="cls-44" x1="385.52" y1="325.24" x2="449.87" y2="362.08"/><line class="cls-44" x1="390.32" y1="322.83" x2="454.21" y2="359.4"/><line class="cls-44" x1="395.03" y1="320.1" x2="458.91" y2="356.68"/><line class="cls-44" x1="400.14" y1="316.86" x2="464.03" y2="353.44"/><line class="cls-44" x1="384.48" y1="331.82" x2="399.39" y2="322.6"/><line class="cls-44" x1="388.75" y1="334.89" x2="415.46" y2="318.83"/><line class="cls-44" x1="393.79" y1="337.29" x2="420.5" y2="321.23"/><line class="cls-44" x1="404.83" y1="336.3" x2="424.78" y2="324.31"/><line class="cls-44" x1="409.89" y1="339.32" x2="430.81" y2="326.73"/><line class="cls-44" x1="414.81" y1="342.01" x2="435.09" y2="329.81"/><line class="cls-44" x1="419.43" y1="344.66" x2="440.12" y2="332.21"/><line class="cls-44" x1="417.69" y1="351.36" x2="444.4" y2="335.29"/><line class="cls-44" x1="423.85" y1="354.41" x2="450.56" y2="338.34"/><line class="cls-44" x1="428.13" y1="357.49" x2="454.84" y2="341.42"/><line class="cls-44" x1="433.17" y1="359.89" x2="459.88" y2="343.82"/><line class="cls-44" x1="435.58" y1="364.09" x2="444.25" y2="358.87"/><line class="cls-44" x1="444.41" y1="353.32" x2="448.41" y2="350.71"/><line class="cls-44" x1="404.77" y1="319.47" x2="410.68" y2="315.32"/><path class="cls-45" d="M393.84,339.14l18.62,10.71a.48.48,0,0,1,0,.82l-11.05,6.7a1.51,1.51,0,0,1-1.56,0l-18.33-10.67a.3.3,0,0,1,0-.52l11.56-7A.75.75,0,0,1,393.84,339.14Z"/></g><path class="cls-46" d="M437.83,305.44h0a2.58,2.58,0,0,1-.95-2.05v-9.27c0-.82.43-1.25.95-.95h0a2.54,2.54,0,0,1,.95,2v9.27C438.78,305.31,438.35,305.74,437.83,305.44Z"/><path class="cls-46" d="M437.17,304.58h0a2.23,2.23,0,0,1,0-2.2l4.09-4.12c.38-.38,1,0,1.39.8h0a2.24,2.24,0,0,1,0,2.21l-4.09,4.12C438.18,305.77,437.55,305.41,437.17,304.58Z"/><path class="cls-46" d="M443,306.86c0,.85-.44,1.29-1,1a2.65,2.65,0,0,1-1-2.12c0-.85.43-1.29,1-1A2.64,2.64,0,0,1,443,306.86Z"/><path class="cls-46" d="M441.3,303.73c0,.61-.31.93-.7.7a1.9,1.9,0,0,1-.7-1.51c0-.61.32-.93.7-.7A1.87,1.87,0,0,1,441.3,303.73Z"/><g id="poot-5" data-name="poot"><ellipse class="cls-5" cx="543.17" cy="721.1" rx="59.58" ry="34.9"/><ellipse class="cls-6" cx="543.17" cy="714.09" rx="59.58" ry="34.9"/><polyline class="cls-9" points="545.17 720.1 554.06 713.87 554.06 668.96 545.17 668.96 545.17 720.1"/><polygon class="cls-8" points="535.83 672.07 535.83 713.87 545.17 720.1 545.17 668.96 535.83 672.07"/></g><g id="zitvlak-2" data-name="zitvlak"><path class="cls-47" d="M543.39,517.94c6.26-4.06,14-8.78,23.19-13.64a307.89,307.89,0,0,1,30.83-14.22c10.87-4.31,18.88-6.75,31.72-10.68,6.52-2,12.5-3.71,17.81-5.19a11.19,11.19,0,0,1,14.11,9.73c1.1,11.48,1.75,21.54,2.17,29.85.77,15.48.71,25.33.59,44.76-.14,23.42-.85,30.06-3.26,37.94A83.49,83.49,0,0,1,648.4,620.8a122.81,122.81,0,0,1-18.68,19.56C621,647.73,613.44,652,606,656.08c-7.9,4.38-18.25,10-32.91,14.22a101.81,101.81,0,0,1-23.41,4.15,88.19,88.19,0,0,1-16.9-.89Q538.09,595.76,543.39,517.94Z"/><path class="cls-7" d="M532.79,673.56a65.44,65.44,0,0,0,7.14-7.71c2.68-3.24,11.91-15,16.89-41.57,1-5.23,1.58-12.38,2.72-26.48A375.77,375.77,0,0,0,558.38,536c-.34-3.3-1.13-10-6.17-15a18.42,18.42,0,0,0-3.49-2.68c-1.9-1.13-4.54-1.7-5.85.09l0,0c-6.06,8.26-7.89,17.39-8.69,20.62-3.06,12.17-6.66,24.2-9.34,36.46-1,4.64-2.33,10.29-4,16.81a14.73,14.73,0,0,1-21.9,8.9l-36.48-22.18a8.6,8.6,0,0,0-5.81-1.19c-3.64.58-7.68,2-9.41,5.25h0a3.07,3.07,0,0,1-.64,1.74c-1.74,2.39,4.26,36.46,4.26,36.46A109.58,109.58,0,0,1,452.23,633a3,3,0,0,0,1.45,2.35q16.4,9.72,33.4,19.42c9.62,5.47,17.06,9.59,21.68,12.18C508.76,666.91,516.85,670.66,532.79,673.56Z"/></g><path id="hand" class="cls-48" d="M157.39,315.05a2.33,2.33,0,0,1,1.33-.24c3.87.14,7.74-.38,11.61-.56,6.06-.28,7.88.29,11.82.28a1.71,1.71,0,0,1,1.43.77c4.78,7.48,4.37,15.22.65,18.29a7.9,7.9,0,0,1-5.11,1.62.86.86,0,0,1-.64-1.45l.36-.39a26,26,0,0,0,2-2.5l-3.11,1.5-1.95.94a17.44,17.44,0,0,1-4.28.5h-.27a8.26,8.26,0,0,1-5.43-2.27,13.24,13.24,0,0,0-5.86-3.17,12.49,12.49,0,0,0-2.89-.34C156.07,323.85,154.71,316.52,157.39,315.05Z"/><path id="hand-2" data-name="hand" class="cls-48" d="M254.79,259.44a.07.07,0,0,1,0-.08c1.62-1.29,4.11-1.48,6.07-2.8,1.43-1,2.83-1.84,4.17-2.64a4,4,0,0,1,1.87-.56c1.73-.06,3.52-.1,5.38-.1,2.1,0,4.13.06,6.07.15a1.57,1.57,0,0,1,1.23,1.18,1.61,1.61,0,0,1-1.23,1.79,11.41,11.41,0,0,1-4.59.92,8.67,8.67,0,0,0-3.08.33,7.88,7.88,0,0,0-.76.28,23.39,23.39,0,0,0,3.62.35,23.14,23.14,0,0,0,5-.45,3.85,3.85,0,0,0,1.45-.6l10.2-6.91a1.66,1.66,0,0,1,2.59,2,32.77,32.77,0,0,1-3.67,3.81c-.3.28-.61.54-.91.79a7.4,7.4,0,0,0-2.46,3.81h0c-.3,1.11-.84,2-3,4.37-1.46,1.65-2.2,2.48-3,3.22a30.56,30.56,0,0,1-3.54,2.81,4,4,0,0,1-2.45.68c-3.12-.2-6.43-.52-9.91-1-2.1-.3-7.86,1.2-9.83.83,0,0,0,0-.06-.06C253,267.27,255.86,263.74,254.79,259.44Z"/><g id="trui"><path class="cls-49" d="M94,237.35A37.5,37.5,0,0,1,74.84,248c-5.45,1.11-8.47,2.15-10.32.55s-.83-3.34-3-6-4.42-2.16-6.32-4.53a9.23,9.23,0,0,1-1.59-7.65c.81-2.86,4.3-6.52,32.17-10.64,7.9-1.17,14.35-1.88,18.47-2.28L131,223.37a5.41,5.41,0,0,1,1.77,5.84,5.32,5.32,0,0,1-4.24,3.57l-7.19-.95Z"/><path class="cls-50" d="M142.1,222.91c.69,0,3.58,2.65,3.78,2.89,3.09,3.82,13.66,11.72,37.05,26.44a5.7,5.7,0,0,0,3.27.86c4.16-.2,9.86-.32,16.59,0,8.79.39,14.77,1.28,19,1.78a179,179,0,0,0,32.92.75,3.33,3.33,0,0,1,3.3,2,16.93,16.93,0,0,1-.25,13.55,3.31,3.31,0,0,1-2.51,1.87l-47.81,7.08a70.34,70.34,0,0,1-41.07-6.31l-27.43-13.32C139.65,242.3,138.82,223.16,142.1,222.91Z"/><path class="cls-51" d="M72.29,361.72c-.18-1.37-.46-3.44-.77-6-3.54-28.43-3.07-41-3.6-51.39-.69-13.45-7.74-29.31-15.51-54.06,3.7-4.11,13.85-13.59,20.84-20.2,10.5-9.92,15.86-14.91,21.35-16.3,6.62-1.68,6,1.32,27.12,2.07a35.31,35.31,0,0,1,12,1.93,31.62,31.62,0,0,1,8.7,4.93,9.54,9.54,0,0,1,3.17,4.6,142.31,142.31,0,0,1,3.66,15.08c.1.53.19,1.06.26,1.59.24,1.69.29,2.95.3,3.19.09,1.9,1.68,17.64,5,37.27,1.38,8.23,2.48,13.71,2.45,22.23,0,2.48-.11,4.51-.19,5.81C130.2,326.8,99.12,347.41,72.29,361.72Z"/><path class="cls-50" d="M96.52,310.15c3.33,0,8.36.14,14.46.73,8,.78,8.56,1.45,15.27,2,5.69.49,7.41.19,20.89.26,4.37,0,8.06.07,10.7.12a2.74,2.74,0,0,1,2.38,1.42,15.64,15.64,0,0,1,.77,13.34,2.82,2.82,0,0,1-2,1.7q-9.78,2-20.11,3.65c-13.09,2.11-25.73,3.64-37.86,4.7a28.49,28.49,0,0,1-28.34-16.36q-12.18-26.16-24.35-52.33a10.71,10.71,0,0,1-.91-3.08c-1.17-9.25,4.11-18,12.24-20.82a19,19,0,0,1,18.74,4.08,10.55,10.55,0,0,1,2.88,4.18,114.33,114.33,0,0,1,4.24,13.89c2.09,8.82,2,13.1,3.49,20.46A92.73,92.73,0,0,0,96.52,310.15Z"/><path class="cls-50" d="M91.51,225.81A37.5,37.5,0,0,1,72.35,236.5a35.32,35.32,0,0,1-10.32.55c-5.85-.93-7.74-2.74-8.29-4.36-2.14-6.39,13.39-19.5,29.59-24.41A55.11,55.11,0,0,1,101.8,206l26.74,5.84a5.41,5.41,0,0,1,1.76,5.84,5.31,5.31,0,0,1-4.24,3.57l-7.18-.95Z"/></g><g id="Hoofd"><path class="cls-52" d="M89.74,204.54v17.31a3.22,3.22,0,0,0,1.1,2.45c8.74,7.59,18.56,10,24.47,6.25a11,11,0,0,0,2.7-2.45,7.21,7.21,0,0,0,1.52-4.47v-19.7a1.27,1.27,0,0,0-1.28-1.26L91,203.28A1.27,1.27,0,0,0,89.74,204.54Z"/><path class="cls-48" d="M78.63,154.18l46.13-1.33a60.59,60.59,0,0,1,7,17.56c1.6,7.08,1.4,12.16,1,22-.45,11.16-.74,16.83-4.11,21.12a21.38,21.38,0,0,1-11.56,7.11c-11.23.47-18.39-3.05-21.9-5.22-6.53-4.05-11.6-10.38-14.89-18.19-.59-1.4-6.5-3.49-7.23-6.6-.81-3.48,3.56-8,3.18-9.78C74.08,170.8,75.44,166.1,78.63,154.18Z"/></g><text class="cls-53" transform="translate(111.9 255.31) rotate(-19.12)">xxx</text><g id="haar"><path class="cls-54" d="M93.21,192a14.58,14.58,0,0,0,3.48.35A50.84,50.84,0,0,1,95.12,185c-.25-1.79-.39-3.48-.45-5a25.06,25.06,0,0,1,.15-5.12,19.27,19.27,0,0,1,1.32-4.7,23,23,0,0,0-1.62-4.56,21.56,21.56,0,0,0-1.31-2.37,42.65,42.65,0,0,0-27.81-7.71,43.71,43.71,0,0,0-.89,26.68c5.63,18.9,22.3,27.53,24.83,28.6.28-.41,2.46-4.09,1.63-7.55a8.23,8.23,0,0,0-3.41-4.85,2.92,2.92,0,0,0-1.57-.5c-4.46-.24-8.09-3.14-8.92-6.85a8.56,8.56,0,0,1,1.07-6c.07-.11.15-.2.22-.3a1.3,1.3,0,0,1,.41-.52,3.87,3.87,0,0,1,.61-.53,5,5,0,0,1,.66-.32l.08-.05h0l.27-.07a5.28,5.28,0,0,1,1.52-.27,4.52,4.52,0,0,1,.9,0l.27,0,.6,0h.15l.3,0,.4.07.45.09.09,0,.66.18C91.54,185.24,93.12,191.62,93.21,192Z"/><path class="cls-35" d="M63,145.12A33.76,33.76,0,0,1,97.52,134.6a12.59,12.59,0,0,1-6.25-4.18,30.94,30.94,0,0,1,12.67-1.1,32.16,32.16,0,0,1,16.6,7.41c1.44,1.23,11.45,10,9,16.29a6.08,6.08,0,0,1-1.7,2.38c-8.19,7.47-22.6,10.38-22.6,10.38-14,2.83-26.18,5.13-40.54.44a56.29,56.29,0,0,1-5.6-2.15c.48-1.08,1.89-5.78,5.45-7.91s4.07-2.74,5.78-2.83c-1-.1-1.66-.34-4.45-3.13A11.55,11.55,0,0,1,63,145.12Z"/></g><g id="bril"><path class="cls-55" d="M114.65,177.12a8,8,0,0,0-2.86-4.61,8.18,8.18,0,0,0-6.4-1.52,8.63,8.63,0,0,0-6.81,8.71c-4.82.92-6.51,1.22-8.19,1.52s-3.48.62-8.61,1.61A7.12,7.12,0,0,0,76.92,186a7.35,7.35,0,0,0-.18,6.8l.8-.41a.41.41,0,0,0-.05-.09,2.56,2.56,0,0,1-.19-.47c0-.18-.12-.36-.16-.55s-.07-.38-.12-.58a3.53,3.53,0,0,1,0-.56c0-.2-.07-.38-.08-.58s0-.42,0-.62l0-.16a.25.25,0,0,1,0-.07,2.89,2.89,0,0,1,.08-.59c0-.17.06-.33.1-.5.1-.34.16-.69.28-1a8.25,8.25,0,0,1,.45-.95,5,5,0,0,1,.51-.9,1.25,1.25,0,0,1,.41-.53,3.87,3.87,0,0,1,.61-.53,5.22,5.22,0,0,1,.75-.37l.3-.09a5.81,5.81,0,0,1,1.49-.25,4.52,4.52,0,0,1,.9,0c.29,0,.56.05.85.06a.91.91,0,0,1,.17,0l.3,0,.4.07.45.09.06,0c2.84-.54,4.19-.78,5.51-1,1.67-.3,3.34-.6,8-1.5a9.05,9.05,0,0,0,3.15,6.53,8.92,8.92,0,0,0,5.07,2,6.52,6.52,0,0,0,3.88-.94,9.17,9.17,0,0,0,3.11-3.05A9.86,9.86,0,0,0,114.65,177.12ZM113,184.75a8.19,8.19,0,0,1-2.77,2.72,5.53,5.53,0,0,1-3.29.8,7.92,7.92,0,0,1-4.51-1.79,8.14,8.14,0,0,1-2.8-6h0l0-.44a7.65,7.65,0,0,1,6-8.1,7.18,7.18,0,0,1,5.59,1.33,7,7,0,0,1,2.51,4.09A8.87,8.87,0,0,1,113,184.75Z"/><path class="cls-56" d="M113.05,174.59a10,10,0,0,1,4.8-2.09,9.94,9.94,0,0,1,4.08.24,8.91,8.91,0,0,1,2.5-3.68,9.16,9.16,0,0,1,1.5-1.05,5.67,5.67,0,0,1,4.11-.59,8.54,8.54,0,0,1,3.42,1.69,8.78,8.78,0,0,1,3,5.37,9,9,0,0,1-.78,5.22,8.92,8.92,0,0,1-2.86,3.39,5.09,5.09,0,0,1-3,1,8.36,8.36,0,0,1-4.45-1.35c-3.46-2.42-3.62-6.91-3.65-7.76a9.91,9.91,0,0,1,.15-2.22"/><line class="cls-57" x1="136.16" y1="173.09" x2="132.37" y2="173.5"/></g><path class="cls-58" d="M96.15,348.19a50.34,50.34,0,0,1-14.41,0,49.81,49.81,0,0,1-11.45-3.1,44.61,44.61,0,0,0-.74,18.3Z"/></svg>