<svg xmlns="http://www.w3.org/2000/svg" viewBox="0 0 480 480"><defs><style>.cls-1{fill:#9ba5aa;}.cls-2{fill:#474756;}.cls-3{fill:#aab6bc;}.cls-4{fill:#34343f;}.cls-5{fill:#b3e3fa;}.cls-6{fill:#ffee76;}.cls-7{fill:#85ff7b;}.cls-8{fill:#c2c9ce;}.cls-9{fill:#616173;}.cls-10,.cls-11,.cls-9{stroke:#c2c9ce;stroke-miterlimit:10;}.cls-10,.cls-9{stroke-width:0.75px;}.cls-10{fill:none;}.cls-11,.cls-30{fill:#cfdee9;}.cls-12{fill:#fff;}.cls-13{fill:#99a3aa;}.cls-14{fill:#545466;}.cls-15{fill:#2d76e0;}.cls-16{fill:#508fea;}.cls-17{fill:#a8735b;}.cls-18{fill:#d3d3d3;}.cls-19{fill:#f9f9f9;}.cls-20{fill:#e5e5e5;}.cls-21{fill:#ba8658;}.cls-22{fill:#af7b58;}.cls-23{fill:#ffaa83;}.cls-24{fill:#385b25;}.cls-25{fill:#44772f;}.cls-26{fill:#352b27;}.cls-27{fill:#f9916b;}.cls-28{fill:#443832;}.cls-29{fill:#e8f2f9;}.cls-31{fill:#fede90;}.cls-32{fill:#335dab;}.cls-33{fill:#f6c5b2;}.cls-34{fill:#fdd0b6;}.cls-35{fill:#414043;}.cls-36{fill:#ec3c5a;}</style></defs><g id="review"><g id="Laptop"><path class="cls-1" d="M422.94,375.08q-41.64,25.25-86.71,50.34Q308.59,440.78,281.55,455a26,26,0,0,1-26.24,0L49.83,335.3c-3.48-2-2.6-8-2.57-10.83l147-81.16a19.46,19.46,0,0,1,19.47,0L422,364.24c1,.57,2.37-3.36,2.41-2.35C424.49,364.54,425.27,373.72,422.94,375.08Z"/><path class="cls-2" d="M386.37,390.29a22,22,0,0,1,4.34-3.33,22.74,22.74,0,0,1,4.6-2,4,4,0,0,1,1.53,1.53,4.1,4.1,0,0,1,.48,2.43,25,25,0,0,1-4.05,2.81,24.69,24.69,0,0,1-5.75,2.3,3.08,3.08,0,0,1-1.28-1.79A3,3,0,0,1,386.37,390.29Z"/><path class="cls-2" d="M399.94,382.36a22.33,22.33,0,0,1,8.94-5.36,4,4,0,0,1,1.54,1.53,4.06,4.06,0,0,1,.47,2.43,24.65,24.65,0,0,1-9.8,5.11,3.16,3.16,0,0,1-1.28-1.79A3.11,3.11,0,0,1,399.94,382.36Z"/><path class="cls-3" d="M203.36,54l2.58,166.48a14.37,14.37,0,0,0,7.19,12.5L423.71,358.89c3.16,1.83,8.61-4.12,8.61-7.77l.11-166.75a19.19,19.19,0,0,0-9.67-16.69L213,47.6C210.25,46,203.4,50.8,203.36,54Z"/><path class="cls-4" d="M203,54.53l-.81,169.29a14.34,14.34,0,0,0,7.19,12.5L421.41,358.59a4.75,4.75,0,0,0,7.12-4.11l.11-166.74A19.23,19.23,0,0,0,419,171L209.22,51A4.18,4.18,0,0,0,203,54.53Z"/><path class="cls-5" d="M212.17,63.28v164a1,1,0,0,0,.5.86l205.2,118.31a1,1,0,0,0,1.49-.86V182.42a1,1,0,0,0-.5-.86L213.66,62.42A1,1,0,0,0,212.17,63.28Z"/><g id="bureaublad"><path class="cls-6" d="M217.55,75.25v8.54l0,0L228.25,90a.05.05,0,0,0,.08,0V81.45s0,0,0,0l-10.68-6.2A0,0,0,0,0,217.55,75.25Z"/><path class="cls-6" d="M217.55,90.05v8.53a.08.08,0,0,0,0,0l10.68,6.15s.08,0,.08,0V96.25a.05.05,0,0,0,0,0L217.62,90S217.55,90,217.55,90.05Z"/><path class="cls-6" d="M217.55,104.84v8.53a.08.08,0,0,0,0,0l10.68,6.16a.05.05,0,0,0,.08,0V111s0,0,0,0l-10.68-6.2A0,0,0,0,0,217.55,104.84Z"/><path class="cls-6" d="M235.86,97.44V106s0,0,0,0l10.67,6.16a.05.05,0,0,0,.08-.05v-8.49a.05.05,0,0,0,0,0l-10.68-6.2S235.86,97.4,235.86,97.44Z"/><path class="cls-6" d="M235.86,112.24v8.53a.05.05,0,0,0,0,0L246.56,127s.08,0,.08,0v-8.49a.08.08,0,0,0,0,0l-10.68-6.2A.05.05,0,0,0,235.86,112.24Z"/><path class="cls-6" d="M235.86,127v8.53a.05.05,0,0,0,0,.05l10.67,6.16a.05.05,0,0,0,.08-.05v-8.49a.05.05,0,0,0,0,0L235.94,127S235.86,127,235.86,127Z"/><path class="cls-6" d="M397.34,278.45V287a.05.05,0,0,0,0,0l10.68,6.16a.06.06,0,0,0,.08-.05v-8.49s0,0,0,0l-10.68-6.2A.05.05,0,0,0,397.34,278.45Z"/><path class="cls-6" d="M397.34,293.24v8.54s0,0,0,0L408.05,308a.06.06,0,0,0,.08-.05v-8.49a.05.05,0,0,0,0,0l-10.68-6.2A.05.05,0,0,0,397.34,293.24Z"/><path class="cls-7" d="M217.55,125.67v8.54a.05.05,0,0,0,0,0l10.68,6.16a.05.05,0,0,0,.08,0v-8.49s0,0,0,0l-10.68-6.2A0,0,0,0,0,217.55,125.67Z"/><path class="cls-7" d="M217.55,140.47V149a.08.08,0,0,0,0,.05l10.68,6.15s.08,0,.08,0v-8.49a.05.05,0,0,0,0,0l-10.68-6.2S217.55,140.43,217.55,140.47Z"/><path class="cls-6" d="M397.34,308v8.53a.05.05,0,0,0,0,.05l10.68,6.15a.05.05,0,0,0,.08,0v-8.49a.05.05,0,0,0,0-.05L397.42,308A.06.06,0,0,0,397.34,308Z"/></g><path class="cls-8" d="M422,367.16l-140.46,82a26,26,0,0,1-26.24,0L49.83,329.55a5.25,5.25,0,0,1,0-9.08l144.42-82.91a19.46,19.46,0,0,1,19.47,0L422,358.49A5,5,0,0,1,422,367.16Z"/><g id="toetsenbord"><path class="cls-9" d="M200.18,250.29,396.31,364.43a2.07,2.07,0,0,1,0,3.57l-73.95,44.59a7.47,7.47,0,0,1-7.22.06L117.76,297.24a2.24,2.24,0,0,1,0-3.87L191,250.31A9.12,9.12,0,0,1,200.18,250.29Z"/><line class="cls-10" x1="128.77" y1="284.06" x2="338.96" y2="404.39"/><line class="cls-10" x1="144.46" y1="276.18" x2="353.12" y2="395.64"/><line class="cls-10" x1="159.83" y1="267.27" x2="368.49" y2="386.72"/><line class="cls-10" x1="176.53" y1="256.69" x2="385.2" y2="376.14"/><line class="cls-10" x1="125.37" y1="305.53" x2="174.07" y2="275.42"/><line class="cls-10" x1="139.34" y1="315.59" x2="226.57" y2="263.11"/><line class="cls-10" x1="155.79" y1="323.42" x2="243.03" y2="270.95"/><line class="cls-10" x1="191.86" y1="320.18" x2="257" y2="281"/><line class="cls-10" x1="208.36" y1="330.04" x2="276.7" y2="288.93"/><line class="cls-10" x1="224.43" y1="338.83" x2="290.67" y2="298.98"/><line class="cls-10" x1="239.54" y1="347.48" x2="307.12" y2="306.82"/><line class="cls-10" x1="233.86" y1="369.35" x2="321.1" y2="316.87"/><line class="cls-10" x1="253.98" y1="379.32" x2="341.22" y2="326.84"/><line class="cls-10" x1="267.95" y1="389.38" x2="355.19" y2="336.9"/><line class="cls-10" x1="284.4" y1="397.21" x2="371.64" y2="344.73"/><line class="cls-10" x1="292.29" y1="410.93" x2="320.61" y2="393.89"/><line class="cls-10" x1="321.12" y1="375.77" x2="334.21" y2="367.25"/><line class="cls-10" x1="191.66" y1="265.2" x2="210.94" y2="251.65"/><path class="cls-11" d="M156,329.46l60.8,35a1.57,1.57,0,0,1,0,2.69L180.7,389a5,5,0,0,1-5.1,0l-59.84-34.86a1,1,0,0,1,0-1.69l37.75-23A2.43,2.43,0,0,1,156,329.46Z"/></g><path class="cls-12" d="M299.64,219.37h0c-1.7-1-3.09-4-3.09-6.69V182.41c0-2.69,1.39-4.1,3.09-3.12h0c1.7,1,3.09,4,3.09,6.68v30.29C302.73,219,301.34,220.36,299.64,219.37Z"/><path class="cls-12" d="M297.48,216.58h0c-1.25-2.69-1.25-5.93,0-7.18l13.36-13.46c1.25-1.26,3.29-.08,4.54,2.61h0c1.25,2.7,1.25,5.94,0,7.2L302,219.21C300.76,220.46,298.73,219.28,297.48,216.58Z"/><path class="cls-12" d="M316.36,224c0,2.8-1.43,4.23-3.19,3.21s-3.19-4.11-3.19-6.9,1.42-4.23,3.19-3.21S316.36,221.21,316.36,224Z"/><path class="cls-12" d="M311,213.8c0,2-1,3-2.28,2.3s-2.29-2.95-2.29-4.95,1-3,2.29-2.3S311,211.79,311,213.8Z"/></g><g id="gsm"><path class="cls-13" d="M41.29,256.35,111,219.61a8.43,8.43,0,0,1,8.49,0l33.33,16.49c0,1.3.33,5.42-1,6.2L82.62,283.14a6.65,6.65,0,0,1-6.82,0L42.12,262.42C41,261.73,41.28,257.41,41.29,256.35Z"/><path d="M42.15,255,111,215.17a8.43,8.43,0,0,1,8.49,0l32.34,19.23a2,2,0,0,1,0,3.46L82.62,278.7a6.65,6.65,0,0,1-6.82,0L42.12,258A1.74,1.74,0,0,1,42.15,255Z"/><path class="cls-14" d="M43.84,254.86,111.08,216a8.25,8.25,0,0,1,8.29,0l30.85,18.1a2,2,0,0,1,0,3.38l-67.6,39.85a6.49,6.49,0,0,1-6.66,0L43.81,257.78A1.7,1.7,0,0,1,43.84,254.86Z"/><path d="M137.66,247.56a7.45,7.45,0,0,1,1.47-1.13,8,8,0,0,1,1.56-.7,1.4,1.4,0,0,1,.69,1.35A8.86,8.86,0,0,1,140,248a8.37,8.37,0,0,1-1.95.79,1.1,1.1,0,0,1-.44-.61A1,1,0,0,1,137.66,247.56Z"/><path d="M142.27,244.87a7.16,7.16,0,0,1,1.47-1.13,7.34,7.34,0,0,1,1.56-.69,1.3,1.3,0,0,1,.52.52,1.32,1.32,0,0,1,.16.82,8.28,8.28,0,0,1-1.37,1,8.37,8.37,0,0,1-2,.79,1.1,1.1,0,0,1-.44-.61A1,1,0,0,1,142.27,244.87Z"/><path class="cls-12" d="M98.34,228.85l9.8-5.36a4.13,4.13,0,0,1,4.15,0l22.33,13.55a1,1,0,0,1,0,1.69l-10,5.85a3.24,3.24,0,0,1-3.33,0l-23-14.25A.86.86,0,0,1,98.34,228.85Z"/><path class="cls-12" d="M84.46,237.52l6.8-3.58a4.09,4.09,0,0,1,4.14,0l22.33,13.55a1,1,0,0,1,0,1.69l-7,4.07a3.24,3.24,0,0,1-3.33,0L84.45,239A.85.85,0,0,1,84.46,237.52Z"/></g><g id="koffie"><path class="cls-15" d="M463.37,383.52h0a4.64,4.64,0,0,0-2.53,0,10,10,0,0,0-2.35.76,9.62,9.62,0,0,0-2.06,1.36,9.27,9.27,0,0,0-1.76,2l2.26,18.74a30,30,0,0,0,7.71-15,27,27,0,0,0,.43-5.33A2.66,2.66,0,0,0,463.37,383.52ZM459,389.11c-.11.38-.22.75-.31,1.13-.24.95-.44,1.91-.76,2.84-.21.62-1.19.35-1-.27s.31-1,.44-1.55a.49.49,0,0,1-.24,0,.51.51,0,0,1-.35-.62l.09-.22a.46.46,0,0,1-.39-.61.61.61,0,0,0,0-.12h0l.13-.31a1.71,1.71,0,0,1-.6.07.52.52,0,0,1-.36-.87,4.57,4.57,0,0,1,1-.93,6.33,6.33,0,0,1,.89-.56,1.15,1.15,0,0,1,1.05-.08,1.12,1.12,0,0,1,.51,1A3.64,3.64,0,0,1,459,389.11Z"/><path class="cls-16" d="M462.44,385.3h0a4,4,0,0,0-2.18,0,7.89,7.89,0,0,0-3.8,1.82,8.66,8.66,0,0,0-1.51,1.72L456.88,405A25.88,25.88,0,0,0,463.52,392a23.9,23.9,0,0,0,.37-4.59A2.27,2.27,0,0,0,462.44,385.3ZM459,389.11c-.11.38-.22.75-.31,1.13-.24.95-.44,1.91-.76,2.84-.21.62-1.19.35-1-.27s.31-1,.44-1.55a.49.49,0,0,1-.24,0,.51.51,0,0,1-.35-.62l.09-.22a.46.46,0,0,1-.39-.61.61.61,0,0,0,0-.12h0l.13-.31a1.71,1.71,0,0,1-.6.07.52.52,0,0,1-.36-.87,4.57,4.57,0,0,1,1-.93,6.33,6.33,0,0,1,.89-.56,1.15,1.15,0,0,1,1.05-.08,1.12,1.12,0,0,1,.51,1A3.64,3.64,0,0,1,459,389.11Z"/><path class="cls-15" d="M408.13,395.58a89.49,89.49,0,0,0,11.5,39.08,8.65,8.65,0,0,0,4.22,3.72,22.74,22.74,0,0,0,17.89-.23A8.54,8.54,0,0,0,445.4,435a78.52,78.52,0,0,0,12.77-39.42,27.6,27.6,0,0,1-7,7.44c-7.44,5.4-15.44,5.37-19.38,5.3-4.44-.09-11.89-.22-18.15-5.58A22.6,22.6,0,0,1,408.13,395.58Z"/><ellipse class="cls-16" cx="433.15" cy="394" rx="25.02" ry="15.1"/><path class="cls-15" d="M456.26,395c0,7.25-10.35,11.42-23.11,11.42s-23.25-4-23.25-11.3,10.49-15,23.25-15S456.26,387.73,456.26,395Z"/><ellipse class="cls-17" cx="433.15" cy="396.03" rx="23.11" ry="10.37"/><path class="cls-16" d="M448.82,382.47a20.28,20.28,0,0,1,3.79-2.56,22.22,22.22,0,0,1,2.44-1.07,5,5,0,0,1,4.45.5,10.15,10.15,0,0,1,1.26,1,17.49,17.49,0,0,1,3.25,3.58c-.82-.08-3.47-.55-5.54.44a9.14,9.14,0,0,0-3.5,2.94Z"/></g><path class="cls-18" d="M38.9,214.49c0,1,0,1.88,0,2.55,0,1.28,0,2.84-.23,4.68-.05.44-.09.89-.14,1.33-.2,1.86-.26,2-.17,2.23.45,1,3.07.53,4.64.41,2.47-.18,2.1.43,9.9,2,7.14,1.48,9.07.54,11,0a.75.75,0,0,0,.54-.72v-1.45c0-.3-2.48,0-3.33-.27-1.32-.43-2.16-.06-3.16-.79-.66-.48-.53-.79-1.48-2.17a26.92,26.92,0,0,0-2.57-3c-1.39-1.48-1.74-1.7-2.08-2.47a5.3,5.3,0,0,1-.41-2.37,8.75,8.75,0,0,0-3.74-.39c-2.18.27-3,1.3-5,1.38A7,7,0,0,1,38.9,214.49Z"/><path class="cls-19" d="M38.9,215.08a9.11,9.11,0,0,0-.59,2.47,30.53,30.53,0,0,0,.2,4,23.5,23.5,0,0,1-.1,2.71,26.49,26.49,0,0,1,5-.24c4.29.21,6.75,1.38,9.68,2.07a26.38,26.38,0,0,0,11.4,0,4.75,4.75,0,0,0-1.7-2.89c-1-.73-1.61-.43-3.56-1.41-.82-.41-.68-.45-2.14-1.26s-1.69-.79-2.52-1.33a7.15,7.15,0,0,1-2.37-2.15,5.92,5.92,0,0,1-.81-2,8.75,8.75,0,0,0-3.74-.39c-2.18.26-3,1.3-5,1.38A7,7,0,0,1,38.9,215.08Z"/><path class="cls-20" d="M19,214.49c0,1,0,1.88,0,2.55,0,1.28,0,2.84-.23,4.68-.05.44-.09.89-.14,1.33-.2,1.86-.09,2-.16,2.23a.73.73,0,0,0,0,.25c.06.71,4.92.5,4.92.5,3.3-.15,2.88.73,11.33,2.23,5.12.91,7.77,1,9.28-.56a3.7,3.7,0,0,0,.54-.72v-1.45c0-.3-2.48,0-3.33-.27-1.32-.43-2.16-.06-3.16-.79-.66-.48-.53-.79-1.48-2.17a25.86,25.86,0,0,0-2.57-3c-1.39-1.48-1.73-1.7-2.07-2.47a5,5,0,0,1-.41-2.37,8.79,8.79,0,0,0-3.74-.39c-2.19.27-3.05,1.3-5,1.38A7,7,0,0,1,19,214.49Z"/><path class="cls-12" d="M19,215.08a9.11,9.11,0,0,0-.59,2.47,30.53,30.53,0,0,0,.2,4,21.42,21.42,0,0,1-.1,2.71,26.49,26.49,0,0,1,5-.24c4.3.21,6.75,1.38,9.68,2.07a26.42,26.42,0,0,0,11.41,0,4.8,4.8,0,0,0-1.71-2.89c-1-.73-1.6-.43-3.55-1.41-.83-.41-.69-.45-2.15-1.26s-1.68-.79-2.52-1.33a7.15,7.15,0,0,1-2.37-2.15,5.67,5.67,0,0,1-.8-2,8.79,8.79,0,0,0-3.74-.39c-2.19.26-3.05,1.3-5,1.38A7,7,0,0,1,19,215.08Z"/><path d="M29.45,220a2,2,0,0,1-.63,1.61c-.59.39-1.43.06-2-.19-2.1-.87-4.05-1.76-5.56-2.48a22.34,22.34,0,0,0,5.48,4.08c1.61.84,2.53,1,3.11.63a2,2,0,0,0,.64-1.47A2.8,2.8,0,0,0,29.45,220Z"/><path class="cls-21" d="M23.27,134.71c-.25,3.06-.61,7.72-.92,13.41-.84,15.46-.09,16.08-.78,24.56-1.17,14.33-3.64,16.53-4,29.44a104.36,104.36,0,0,0,.68,15.19,22.1,22.1,0,0,0,6.58.6,21.75,21.75,0,0,0,7.1-1.61A151.83,151.83,0,0,1,32.35,197c.48-5.61.74-8.5,1.89-12.45s2.23-5.69,3.66-10.44A66.68,66.68,0,0,0,40.12,164a212.49,212.49,0,0,0-1.33,51.78,20.21,20.21,0,0,0,12.67-.67c-.37-5.23-.6-11.45-.45-18.44a151.11,151.11,0,0,1,1.23-18c2.32-17,6.79-21.46,6.77-34.89a61.48,61.48,0,0,0-1.22-12.08,31.84,31.84,0,0,1-17.22,7.85c-2.88.31-7.79.78-12.92-1.81A19.25,19.25,0,0,1,23.27,134.71Z"/><path class="cls-22" d="M52.24,178.68c2.32-17,6.79-21.46,6.77-34.89a61.48,61.48,0,0,0-1.22-12.08,32.44,32.44,0,0,1-14.56,7.41c.91,4.63-.07,9.54-.72,14.14-.54,3.76-.72,7.64-2.42,11a14.25,14.25,0,0,1-.58,4.18c-.69,5.42-1.22,11.23-1.5,17.42a212.78,212.78,0,0,0,.78,29.89,20.21,20.21,0,0,0,12.67-.67c-.37-5.23-.6-11.45-.45-18.44A151.11,151.11,0,0,1,52.24,178.68Z"/><path class="cls-23" d="M54.37,109.14a.62.62,0,0,0,.25.47A77.77,77.77,0,0,0,76.55,125,10.63,10.63,0,0,0,83,130.21a11.52,11.52,0,0,0,6.36-.46,9.89,9.89,0,0,0,2.33-1.32A1.91,1.91,0,0,0,90.42,125a22.83,22.83,0,0,1-3.93-.32,6.81,6.81,0,0,1-4-2.08.63.63,0,0,1,.37-1.07,35.64,35.64,0,0,1,5.37-.4,4.83,4.83,0,0,0,.67-.17,1.31,1.31,0,0,0-.09-2.56l-.87-.16a64.43,64.43,0,0,0-8.35-.88.59.59,0,0,1-.23-.05.55.55,0,0,1-.25-.21l0,0c-.12-.18-12-9.25-15.64-13.62-4.17-5-.59-7.19-6.66-19.44-1-2.06-3.59-7-4.06-6.78-.17.07,0,.82.15,1.48Z"/><path class="cls-24" d="M61.27,89,48.43,98.38A1,1,0,0,1,47.09,98L38.2,85.89A5.3,5.3,0,0,1,37.34,84,9.27,9.27,0,0,1,51,74.1a5.08,5.08,0,0,1,1.45,1.36l8.89,12.16A1,1,0,0,1,61.27,89Z"/><path class="cls-25" d="M26.66,74.49c-2.44,1.43-6.53,3.81-8.79,8.09C13.39,91.08,21.54,97,22.94,117c.52,7.41.26,18.81.26,18.81a19.37,19.37,0,0,0,5.41,3.52,22.21,22.21,0,0,0,11.16,1.39,29.75,29.75,0,0,0,9.56-2.34,28.84,28.84,0,0,0,8.39-5.57,47.39,47.39,0,0,0-.61-7.37c-.67-4-1.53-5.76-2.17-9.78a43.92,43.92,0,0,1-.56-6.94c0-1.43,0-3.55.06-6.11,0-1.72.08-4.91.22-8.84.3-8.34.6-8.84.22-11.11A22.37,22.37,0,0,0,52,74.91a11.84,11.84,0,0,0-1.09-1.14,11.33,11.33,0,0,0-8.52-3A34.82,34.82,0,0,0,26.66,74.49Z"/><path class="cls-23" d="M63,132.94a13,13,0,0,0-2.34-1,14.64,14.64,0,0,0-3.67-.68L51,130.66c-3.81-3.15-7.43-4.28-9.73-5.52-1.61-.87-3.21-1.77-4.86-2.57-2.75-1.35-4.11-1.83-5.55-3.32a12.14,12.14,0,0,1-2-3c-1.95-4.16.42-8.6,1.26-15.93,0,0,1.46-12.85-3.93-18.17l0,0a4.86,4.86,0,0,0-6.3-.36l-.15.12c-4.19,3.38-4,9.79-3.91,14.9.2,8.23.38,15.82.61,23.74a4.78,4.78,0,0,0,2.68,4.16q5.52,2.67,11.59,5.28c6.05,2.59,11.89,4.84,17.46,6.8,3.25,5.73,9.26,8.47,14.2,7a9.76,9.76,0,0,0,3.79-2.15,1.32,1.32,0,0,0-1-2.3,8.92,8.92,0,0,1-5.2-.93,9.07,9.07,0,0,1-3.26-2.93.5.5,0,0,1,.42-.78c1.75,0,4.85.28,5.85.21A1,1,0,0,0,63,132.94Z"/><path class="cls-24" d="M30.38,100.68l-14.85-.42a.86.86,0,0,1-.8-.92l.36-12.77a4,4,0,0,1,.42-1.69,8.64,8.64,0,0,1,7.87-4.39,8.68,8.68,0,0,1,7.91,4.88A4,4,0,0,1,31.6,87q-.2,6.39-.37,12.78A.86.86,0,0,1,30.38,100.68Z"/><path d="M49.06,219.3a2,2,0,0,1-.63,1.61c-.6.39-1.43.06-2-.19-2.11-.87-4-1.76-5.57-2.49a22.55,22.55,0,0,0,5.48,4.09c1.62.84,2.53,1,3.12.63a2,2,0,0,0,.64-1.47A2.8,2.8,0,0,0,49.06,219.3Z"/><path class="cls-26" d="M42,47.76c.43,2.56.87,5.12,1.3,7.68A6,6,0,0,0,44,50.66,5.71,5.71,0,0,0,42,47.76Z"/><path class="cls-27" d="M26.35,70.88l.31,3.61a36.59,36.59,0,0,0,7.76,7.08,3.73,3.73,0,0,0,5.71-3,9,9,0,0,0-.49-4.11C38.46,72.32,26.35,70.88,26.35,70.88Z"/><path class="cls-23" d="M42.74,49a74.75,74.75,0,0,1,1.1,12,73.63,73.63,0,0,1-.56,10.09A4.85,4.85,0,0,1,41.15,75a4.66,4.66,0,0,1-4.45.31l-9.6-3A4.24,4.24,0,0,1,26,71.74a3.11,3.11,0,0,1-.49-.39c-1.78-1.68-5.86-6.24-5.62-12.82a16.4,16.4,0,0,1,3.41-9.26H40.26Z"/><path class="cls-28" d="M23.53,68.76l1.57-2.82a.53.53,0,0,0-.37-.79,5.54,5.54,0,0,1-2.11-1.28c-1.81-1.39-2.69-4.35-1.54-6a2.83,2.83,0,0,1,1.58-1c1.4-.35,2.45,0,3.5,1.56a6.14,6.14,0,0,0,.45-4.08A10.21,10.21,0,0,0,29,52.62a17.76,17.76,0,0,0,2.25-2.3,1,1,0,0,1,1.13-.27c4.9,2.07,9.76,1.51,12.23-1.33A7.51,7.51,0,0,0,46.29,45a4.71,4.71,0,0,0-.79-2.6c-1.71-2.43-5.62-2-6.62-1.94-2.07.2-2.24.81-5,1.3a24.86,24.86,0,0,1-5.08.28h-.07a9.74,9.74,0,0,0-9.36,9.59v.09c-.25,8.7.22,11.6,1.69,14.3a28.54,28.54,0,0,0,1.85,2.83A.36.36,0,0,0,23.53,68.76Z"/><path class="cls-29" d="M106.66,166.66l75.89,44.44a.5.5,0,0,0,.75-.43V79.21a14.93,14.93,0,0,0-7.56-13L104.88,26.06V163.55A3.6,3.6,0,0,0,106.66,166.66Z"/><path class="cls-30" d="M163.63,118.7c-1.93,11.68-11.73,15.12-22.17,9.53s-20.4-19.56-22.65-33.42c-2.78-17,6.74-27.5,21.94-19.46S166,104.33,163.63,118.7Z"/><polygon class="cls-30" points="110.75 132.06 178.53 171.47 178.53 174.51 110.75 135.1 110.75 132.06"/><polygon class="cls-30" points="110.75 138.06 178.53 177.47 178.53 180.51 110.75 141.1 110.75 138.06"/><polygon class="cls-30" points="110.75 144.06 178.53 183.47 178.53 186.51 110.75 147.1 110.75 144.06"/><polygon class="cls-30" points="110.75 150.06 178.53 189.47 178.53 192.51 110.75 153.1 110.75 150.06"/><polygon class="cls-30" points="110.75 156.06 134.61 170.36 134.61 173.4 110.75 159.1 110.75 156.06"/><polygon class="cls-31" points="127.68 129.4 128.43 131.97 130.61 133.32 128.79 134.14 128.88 136.41 127.13 134.53 125.24 134.61 125.75 132.7 124.39 130.46 126.5 131.08 127.68 129.4"/><polygon class="cls-31" points="134.74 133.4 135.48 135.97 137.67 137.32 135.85 138.14 135.93 140.41 134.19 138.53 132.29 138.62 132.81 136.7 131.45 134.46 133.55 135.09 134.74 133.4"/><polygon class="cls-31" points="142.26 137.83 143 140.4 145.19 141.75 143.37 142.57 143.45 144.84 141.71 142.96 139.81 143.05 140.33 141.13 138.97 138.89 141.07 139.52 142.26 137.83"/><polygon class="cls-31" points="149.31 141.84 150.06 144.41 152.24 145.76 150.42 146.58 150.51 148.85 148.76 146.97 146.87 147.05 147.38 145.14 146.02 142.9 148.13 143.52 149.31 141.84"/><polygon class="cls-31" points="156.45 146 157.2 148.57 159.38 149.92 157.56 150.74 157.65 153.01 155.9 151.13 154.01 151.21 154.52 149.3 153.16 147.06 155.27 147.68 156.45 146"/><path class="cls-32" d="M136.77,107c-5-2-9.69-1.74-11.72.74a4.84,4.84,0,0,0-1,2,51.34,51.34,0,0,0,12.61,15.31Q136.73,116.05,136.77,107Z"/><path class="cls-32" d="M145.77,111.91c0,1.22,0,2.9,0,4.12q0,7,0,14a13.93,13.93,0,0,0,12.17-1.26,25.66,25.66,0,0,0-2.71-7.23A26.47,26.47,0,0,0,145.77,111.91Z"/><polygon class="cls-33" points="136.77 114.75 136.74 100.88 145.73 102.71 145.76 118.95 136.77 114.75"/><path class="cls-12" d="M145.76,116a9.5,9.5,0,0,1-4.34-.86,9.7,9.7,0,0,1-4.65-4.76q0,7.34-.07,14.67a28.46,28.46,0,0,0,4,2.72,27.75,27.75,0,0,0,5,2.23Q145.74,123,145.76,116Z"/><path class="cls-34" d="M133.79,93.39a3.81,3.81,0,0,0,.07.75c1.71,9.45,5.83,15.24,9.25,15,2.16-.13,3.86-2.64,4.92-4.74a6.21,6.21,0,0,0,.65-2.78V93.77l-14.89-7Z"/><path class="cls-35" d="M134.16,95.62a28,28,0,0,1-1-8.15,18,18,0,0,1,.72-4c.12-.2.25-.67.63-.7a13.78,13.78,0,0,1,7,1.19,14.39,14.39,0,0,1,7.29,8.22.54.54,0,0,1,0,.22v9.41a.7.7,0,0,1-1.09.59L147,102a.71.71,0,0,1-.32-.59l.06-6.68a.69.69,0,0,0-.69-.7l-5.91,0a.67.67,0,0,1-.48-.2L136,90.13a.7.7,0,0,0-1.19.5l.41,5Z"/><path class="cls-30" d="M104.88,44.06,183.3,90V78.92A14.44,14.44,0,0,0,176,66.36l-71.11-40.3v18Z"/><path class="cls-36" d="M178.15,79.31V67a6.52,6.52,0,0,0-3.28-5.66L106.24,22a3.62,3.62,0,0,0-5.42,3.14v10Z"/><path class="cls-12" d="M159.9,61.29c0,1.61-1.2,2.36-2.52,1.72a4,4,0,0,1-2-3.49c0-1.34,1-2.16,2.15-1.81A3.83,3.83,0,0,1,159.9,61.29Z"/><path class="cls-12" d="M166.81,65.51c0,1.61-1.2,2.36-2.52,1.72a4,4,0,0,1-2-3.49c.05-1.34,1-2.16,2.16-1.81A3.84,3.84,0,0,1,166.81,65.51Z"/><path class="cls-12" d="M174.3,69.77c0,1.61-1.2,2.36-2.52,1.72a4,4,0,0,1-2-3.49c0-1.34,1-2.15,2.15-1.8A3.82,3.82,0,0,1,174.3,69.77Z"/></g></svg>